<svg xmlns="http://www.w3.org/2000/svg" width="960" height="560" viewBox="0 0 960 560" role="img" aria-labelledby="title desc">
  <title id="title">SWOT Comparison Matrix thumbnail</title>
  <desc id="desc">A four column SWOT comparison matrix with blue, teal, amber, and purple quadrants.</desc>
  <rect width="960" height="560" rx="36" fill="#f8fafc"/>
  <rect x="86" y="70" width="788" height="420" rx="28" fill="#ffffff" stroke="#dbe3ea" stroke-width="4"/>
  <g opacity=".45">
    <pattern id="dots" width="36" height="36" patternUnits="userSpaceOnUse">
      <circle cx="2" cy="2" r="2" fill="#cbd5e1"/>
    </pattern>
    <rect x="114" y="102" width="732" height="360" fill="url(#dots)"/>
  </g>
  <g transform="translate(126 126)" fill="none" stroke="#334155" stroke-width="3.5" stroke-linecap="round" stroke-linejoin="round">
    <circle cx="16" cy="16" r="14"/>
    <path d="M10 16h12"/>
  </g>
  <text x="182" y="153" fill="#1f2937" font-family="ui-sans-serif, system-ui, sans-serif" font-size="32" font-weight="800" letter-spacing="4">COMPARISON</text>
  <text x="396" y="151" fill="#64748b" font-family="ui-sans-serif, system-ui, sans-serif" font-size="14">SWOT analysis</text>
  <g transform="translate(126 196)">
    <rect width="177" height="88" fill="#2f8cff"/>
    <rect x="177" width="177" height="88" fill="#14bfd0"/>
    <rect x="354" width="177" height="88" fill="#fb923c"/>
    <rect x="531" width="177" height="88" fill="#c084fc"/>
    <text x="88" y="51" text-anchor="middle" fill="#fff" font-family="ui-sans-serif, system-ui, sans-serif" font-size="42" font-weight="900">S</text>
    <text x="265" y="51" text-anchor="middle" fill="#fff" font-family="ui-sans-serif, system-ui, sans-serif" font-size="42" font-weight="900">W</text>
    <text x="442" y="51" text-anchor="middle" fill="#fff" font-family="ui-sans-serif, system-ui, sans-serif" font-size="42" font-weight="900">O</text>
    <text x="619" y="51" text-anchor="middle" fill="#fff" font-family="ui-sans-serif, system-ui, sans-serif" font-size="42" font-weight="900">T</text>
    <text x="88" y="73" text-anchor="middle" fill="#e0f2fe" font-family="ui-sans-serif, system-ui, sans-serif" font-size="10" font-weight="800">STRENGTHS</text>
    <text x="265" y="73" text-anchor="middle" fill="#cffafe" font-family="ui-sans-serif, system-ui, sans-serif" font-size="10" font-weight="800">WEAKNESSES</text>
    <text x="442" y="73" text-anchor="middle" fill="#ffedd5" font-family="ui-sans-serif, system-ui, sans-serif" font-size="10" font-weight="800">OPPORTUNITIES</text>
    <text x="619" y="73" text-anchor="middle" fill="#f3e8ff" font-family="ui-sans-serif, system-ui, sans-serif" font-size="10" font-weight="800">THREATS</text>
    <rect y="88" width="177" height="162" fill="#eff6ff"/>
    <rect x="177" y="88" width="177" height="162" fill="#ecfeff"/>
    <rect x="354" y="88" width="177" height="162" fill="#fff7ed"/>
    <rect x="531" y="88" width="177" height="162" fill="#faf5ff"/>
    <g font-family="ui-sans-serif, system-ui, sans-serif" font-size="13">
      <g fill="#1d4ed8">
        <circle cx="28" cy="118" r="3"/><text x="42" y="123">Distinct craft</text>
        <circle cx="28" cy="152" r="3"/><text x="42" y="157">Fast release cadence</text>
        <circle cx="28" cy="186" r="3"/><text x="42" y="191">Reusable primitives</text>
        <circle cx="28" cy="220" r="3"/><text x="42" y="225">Strong design language</text>
      </g>
      <g fill="#0f766e">
        <circle cx="205" cy="118" r="3"/><text x="219" y="123">Manual curation</text>
        <circle cx="205" cy="152" r="3"/><text x="219" y="157">Limited templates</text>
        <circle cx="205" cy="186" r="3"/><text x="219" y="191">Early analytics</text>
        <circle cx="205" cy="220" r="3"/><text x="219" y="225">Authoring gaps</text>
      </g>
      <g fill="#c2410c">
        <circle cx="382" cy="118" r="3"/><text x="396" y="123">Template registry</text>
        <circle cx="382" cy="152" r="3"/><text x="396" y="157">AI composition</text>
        <circle cx="382" cy="186" r="3"/><text x="396" y="191">Chart primitives</text>
        <circle cx="382" cy="220" r="3"/><text x="396" y="225">Searchable kits</text>
      </g>
      <g fill="#9333ea">
        <circle cx="559" cy="118" r="3"/><text x="573" y="123">Inconsistent data</text>
        <circle cx="559" cy="152" r="3"/><text x="573" y="157">Complex templates</text>
        <circle cx="559" cy="186" r="3"/><text x="573" y="191">Dependency scope</text>
        <circle cx="559" cy="220" r="3"/><text x="573" y="225">Preview metadata</text>
      </g>
    </g>
  </g>
</svg>
